<svg width="200" height="200" viewBox="0 0 200 200" fill="none" xmlns="http://www.w3.org/2000/svg">
<g clip-path="url(#clip0_1_235)">
<path d="M89.72 27.04C89.7835 27.0089 89.8394 26.9642 89.8838 26.9089C89.9281 26.8537 89.96 26.7891 89.9771 26.7198C89.9942 26.6504 89.9961 26.5779 89.9828 26.5072C89.9695 26.4364 89.9413 26.3692 89.9 26.31L79.66 11.97C79.5353 11.7928 79.4836 11.5739 79.5151 11.357C79.5466 11.1401 79.6591 10.9411 79.83 10.8C81.17 9.68666 82.49 9.66666 83.79 10.74C85.9767 12.5333 88.1067 14.39 90.18 16.31C91.04 17.11 92.0367 17.4267 93.17 17.26C93.3357 17.2344 93.5056 17.2709 93.6487 17.3626C93.7919 17.4544 93.8988 17.5954 93.95 17.76C94.8567 20.74 96.4667 22.6067 98.78 23.36C99.0641 23.4573 99.3963 23.4467 99.72 23.33C106.047 21.13 112.56 20.02 119.26 20C120.52 19.9933 120.757 20.48 119.97 21.46C118.49 23.2933 116.543 24.7167 114.13 25.73C109.223 27.7967 105.7 29.0733 103.56 29.56C101.327 30.0733 100.013 31.2767 99.62 33.17C99.4067 34.1967 99.29 34.9067 99.27 35.3C99.2167 36.1267 99.52 36.84 100.18 37.44C100.274 37.524 100.345 37.6307 100.387 37.75C100.428 37.8693 100.438 37.9971 100.416 38.1214C100.394 38.2456 100.34 38.3622 100.261 38.46C100.181 38.5577 100.077 38.6335 99.96 38.68C98.68 39.1933 97.9167 40.13 97.67 41.49C97.1167 44.5433 96.3433 47.5367 95.35 50.47C95.247 50.7786 95.0326 51.0359 94.75 51.19C92.2633 52.53 91.1367 51.87 91.37 49.21C91.4767 47.9767 91.5333 47.3333 91.54 47.28C91.7133 42.5867 91.8033 37.89 91.81 33.19C91.8103 33.1249 91.797 33.0603 91.7712 33.0009C91.7454 32.9416 91.7077 32.889 91.6608 32.8469C91.6139 32.8048 91.559 32.7742 91.5001 32.7575C91.4411 32.7407 91.3796 32.7382 91.32 32.75L80.34 35.07C79.4533 35.2567 78.66 35.9533 77.96 37.16L74.11 43.79C73.91 44.1367 73.83 44.1 73.87 43.68C74.4233 37.7067 72.6533 32.3767 68.56 27.69C68.2133 27.2833 68.2567 27.0733 68.69 27.06C68.8367 27.0533 68.9867 27.0967 69.14 27.19C71.7667 28.9167 74.56 30.3 77.52 31.34C77.8329 31.4442 78.1678 31.4512 78.48 31.36C82.4133 30.2133 86.16 28.7733 89.72 27.04Z" fill="#F39524"/>
<path d="M35.25 119.54C35.15 119.947 35.22 120.267 35.46 120.5L37.79 127.75C42.2367 138.43 48.9167 147.78 57.83 155.8C56.9567 156.147 56.8933 156.513 57.64 156.9C58.3733 157.273 59.13 157.393 59.91 157.26C83.49 174.087 108.603 176.43 135.25 164.29L146.79 164.5C133.317 176.28 117.883 182.513 100.49 183.2C93.8567 183.46 87.2367 182.86 80.63 181.4C60.91 177.027 45.2867 166.08 33.76 148.56C24.8533 135.02 20.7767 120.083 21.53 103.75C22.13 90.7233 25.85 78.6867 32.69 67.64C41.0433 54.1533 52.4867 44.1867 67.02 37.74C68.2933 37.1733 68.3833 37.3267 67.29 38.2C62.7367 41.8467 58.2367 45.96 53.79 50.54C44.67 59.9333 38.34 70.76 34.8 83.02C33.08 88.9733 32.32 95.0367 32.52 101.21C32.7133 107.39 33.6233 113.5 35.25 119.54Z" fill="#F6941F"/>
<path d="M61.87 76.37C71.1233 66.8633 81.93 59.7167 94.29 54.93C94.4199 54.8776 94.5651 54.8708 94.7038 54.9104C94.8425 54.95 94.9674 55.0341 95.06 55.15L99.75 60.95C99.803 61.0158 99.8397 61.093 99.8574 61.1756C99.8751 61.2582 99.8732 61.3438 99.8518 61.4255C99.8304 61.5071 99.7901 61.5827 99.7342 61.646C99.6783 61.7093 99.6084 61.7586 99.53 61.79C90.8567 65.21 82.8067 69.42 75.38 74.42C65.1267 81.3267 55.88 89.09 47.64 97.71C46.2467 99.17 46.01 99 46.93 97.2C50.87 89.5 55.85 82.5567 61.87 76.37Z" fill="#1375B5"/>
<path d="M125.67 70.57C125.917 70.81 125.87 70.9733 125.53 71.06L113.58 74.19C113.332 74.2539 113.071 74.2516 112.82 74.1833C112.57 74.115 112.339 73.9831 112.15 73.8L103.05 64.98C102.989 64.9198 102.942 64.8456 102.914 64.7644C102.887 64.6832 102.879 64.5976 102.892 64.5157C102.905 64.4338 102.938 64.3581 102.989 64.2959C103.039 64.2337 103.105 64.187 103.18 64.16L113.89 60.17C114.133 60.0799 114.4 60.065 114.662 60.127C114.924 60.1889 115.17 60.3252 115.37 60.52L125.67 70.57Z" fill="#1375B5"/>
<path d="M101.67 67.82C103.91 69.9133 106.32 72.3267 108.9 75.06C108.945 75.1096 108.977 75.1695 108.994 75.2344C109.011 75.2993 109.011 75.3673 108.995 75.4325C108.979 75.4976 108.948 75.5579 108.903 75.608C108.859 75.6581 108.803 75.6966 108.74 75.72L99.89 79.08C99.6359 79.1754 99.3572 79.194 99.0864 79.1339C98.8155 79.0737 98.5636 78.9371 98.36 78.74L90.6 71.26C90.5311 71.1936 90.4774 71.1129 90.4429 71.0239C90.4084 70.9349 90.394 70.8398 90.4007 70.7458C90.4074 70.6517 90.4351 70.561 90.4817 70.4804C90.5283 70.3998 90.5927 70.3313 90.67 70.28C93.21 68.58 95.9767 67.15 98.97 65.99C99.1122 65.9358 99.2658 65.9212 99.4139 65.9477C99.5621 65.9741 99.6991 66.0407 99.81 66.14C100.443 66.6933 101.063 67.2533 101.67 67.82Z" fill="#1375B5"/>
<path d="M163.7 74.96C159.147 79.3733 155.473 84.4267 152.68 90.12C150.84 93.8733 149.753 98.2367 149.42 103.21C149.406 103.422 149.314 103.621 149.163 103.77C149.012 103.919 148.812 104.008 148.6 104.02C135.24 104.8 121.76 104.997 108.16 104.61C108.1 104.61 105.827 104.51 101.34 104.31C85.74 103.61 70.2933 105.583 55 110.23C54.46 110.397 54.4167 110.313 54.87 109.98C64.65 102.9 74.85 96.5367 85.47 90.89C100.177 83.07 115.6 77.0967 131.74 72.97C143.387 69.9967 155.893 68.6933 169.26 69.06C169.673 69.0667 169.73 69.2133 169.43 69.5C167.217 71.58 165.307 73.4 163.7 74.96Z" fill="#1175B9"/>
<path d="M79.8 78.42C79.6984 78.3177 79.6199 78.1947 79.57 78.0601C79.5201 77.9255 79.5002 77.7826 79.5117 77.6417C79.5232 77.5009 79.5658 77.3658 79.6364 77.2461C79.7071 77.1265 79.8039 77.0253 79.92 76.95L86.56 72.74C86.6855 72.6584 86.835 72.6218 86.984 72.6363C87.133 72.6509 87.2727 72.7156 87.38 72.82L95.17 80.38C95.2137 80.4225 95.2462 80.4751 95.2648 80.5333C95.2833 80.5915 95.2874 80.6536 95.2766 80.7144C95.2658 80.7751 95.2405 80.8328 95.2028 80.8825C95.1651 80.9323 95.1161 80.9725 95.06 81L87.32 84.76C87.0901 84.8742 86.8244 84.9077 86.5606 84.8556C86.2968 84.8036 86.0482 84.6687 85.85 84.47L79.8 78.42Z" fill="#1375B5"/>
<path d="M83.17 86.38C83.2059 86.4159 83.233 86.4596 83.2493 86.5077C83.2655 86.5558 83.2704 86.607 83.2637 86.6573C83.2569 86.7076 83.2386 86.7557 83.2102 86.7978C83.1818 86.8399 83.1441 86.8749 83.1 86.9L76.55 90.63C76.1889 90.8328 75.7754 90.9152 75.374 90.8646C74.9725 90.8139 74.6055 90.633 74.33 90.35L69.55 85.39C69.5026 85.3414 69.4665 85.2829 69.4442 85.2184C69.4218 85.154 69.4136 85.085 69.4203 85.016C69.4269 84.947 69.4481 84.8796 69.4825 84.8182C69.517 84.7569 69.5638 84.7029 69.62 84.66L75.82 80.01C75.9404 79.9207 76.0881 79.8766 76.2366 79.8858C76.3851 79.895 76.5246 79.9567 76.63 80.06L83.17 86.38Z" fill="#1375B5"/>
<path d="M72.14 92.51C72.1884 92.5572 72.2255 92.6147 72.2486 92.6782C72.2717 92.7417 72.2802 92.8096 72.2735 92.8768C72.2668 92.9441 72.245 93.009 72.2098 93.0666C72.1745 93.1243 72.1268 93.1733 72.07 93.21L66.2 96.98C66.0216 97.0941 65.8073 97.1433 65.5903 97.1198C65.3733 97.0963 65.1658 97.0014 65 96.85L60.95 93.14C60.8806 93.0758 60.8249 92.9983 60.7864 92.9123C60.748 92.8264 60.7276 92.7338 60.7267 92.6407C60.7257 92.5475 60.7442 92.4558 60.7809 92.3713C60.8177 92.2868 60.8718 92.2114 60.94 92.15L66.28 87.38C66.3844 87.2877 66.5219 87.2405 66.6648 87.2479C66.8077 87.2553 66.9454 87.3168 67.05 87.42L72.14 92.51Z" fill="#1375B5"/>
<path d="M59.94 96.03C60.9533 96.81 61.8033 97.7367 62.49 98.81C62.563 98.9285 62.5892 99.0697 62.5632 99.2052C62.5372 99.3407 62.461 99.4603 62.35 99.54L56.66 103.48C56.524 103.573 56.3677 103.624 56.218 103.624C56.0684 103.624 55.9347 103.573 55.84 103.48L52.9 100.63C52.8456 100.576 52.8026 100.512 52.7736 100.441C52.7445 100.37 52.73 100.294 52.731 100.218C52.7319 100.141 52.7482 100.066 52.779 99.9957C52.8097 99.9257 52.8543 99.8625 52.91 99.81L57.86 95.05C57.9582 94.9574 58.0915 94.9066 58.2361 94.9066C58.3808 94.9066 58.5274 94.9574 58.65 95.05C59.0833 95.3767 59.5133 95.7033 59.94 96.03Z" fill="#1B75AD"/>
<path d="M148.85 116.41C146.777 116.777 144.763 116.327 142.81 115.06C138.997 113.66 135.06 112.71 131 112.21C130.52 111.537 130.517 110.683 130.99 109.65C147.517 109.003 163.853 106.237 180 101.35C181.433 100.917 181.563 101.167 180.39 102.1C170.903 109.667 160.39 114.437 148.85 116.41Z" fill="#46AADA"/>
<path d="M35.46 120.5C35.22 120.267 35.15 119.947 35.25 119.54L48.89 103.91C49.0724 103.703 49.3245 103.57 49.6011 103.533C49.8778 103.497 50.161 103.559 50.4 103.71C52.7867 105.21 53.2167 106.37 51.69 107.19C49.3033 108.463 43.8933 112.9 35.46 120.5Z" fill="#2074A3"/>
<path d="M130.99 109.65C130.517 110.683 130.52 111.537 131 112.21C129.02 111.883 126.603 111.98 123.75 112.5C119.823 113.22 115.45 113.93 110.63 114.63C110.397 114.662 110.183 114.774 110.03 114.944C109.877 115.113 109.795 115.329 109.8 115.55L110.01 123.69C110.013 123.839 110.068 123.982 110.167 124.095C110.265 124.209 110.401 124.284 110.55 124.31C111.617 124.49 111.933 123.803 111.5 122.25C110.767 119.643 111.597 117.72 113.99 116.48C117.223 114.807 120.667 113.883 124.32 113.71C130.507 113.423 136.67 113.873 142.81 115.06C144.763 116.327 146.777 116.777 148.85 116.41C149.577 117.29 150.303 117.853 151.03 118.1C151.27 118.187 151.437 118.28 151.53 118.38C151.81 118.667 151.723 118.86 151.27 118.96C151.117 118.993 150.94 118.987 150.74 118.94C143.927 117.407 136.927 116.483 129.74 116.17C129.673 116.167 129.607 116.178 129.545 116.202C129.483 116.227 129.428 116.264 129.382 116.312C129.336 116.359 129.302 116.416 129.281 116.478C129.26 116.54 129.253 116.605 129.26 116.67L130.61 128.07C130.627 128.208 130.694 128.336 130.8 128.431C130.906 128.526 131.044 128.582 131.19 128.59L154.09 129.84C154.182 129.844 154.274 129.828 154.359 129.792C154.445 129.757 154.521 129.703 154.582 129.635C154.643 129.567 154.688 129.486 154.714 129.399C154.74 129.311 154.745 129.22 154.73 129.13C154.39 126.95 153.933 124.753 153.36 122.54C153.127 121.647 153.207 121.41 153.6 121.83C153.693 121.93 153.77 122.057 153.83 122.21C156.443 129.337 157.743 136.94 157.73 145.02C158.57 146.16 158.73 147.487 158.21 149C157.33 148.753 156.6 149.007 156.02 149.76C154.7 151.473 155.007 152.223 156.94 152.01C157.123 151.989 157.293 151.931 157.429 151.845C157.565 151.758 157.662 151.646 157.71 151.52L158.21 150.25C158.263 150.717 158.527 150.897 159 150.79C158.44 152.63 157.273 153.58 155.5 153.64C154.013 153.693 153.22 153.727 153.12 153.74C144.507 154.953 135.873 155.143 127.22 154.31C127.102 154.3 126.987 154.267 126.882 154.211C126.777 154.156 126.684 154.08 126.609 153.988C126.533 153.895 126.477 153.789 126.443 153.674C126.409 153.56 126.397 153.439 126.41 153.32C126.597 151.667 126.553 151.137 126.28 151.73C125.68 153.017 125.493 154.343 125.72 155.71C125.743 155.846 125.814 155.971 125.921 156.064C126.028 156.157 126.165 156.212 126.31 156.22C135.483 156.747 144.627 156.4 153.74 155.18C154.46 155.08 155.01 155.04 155.39 155.06C156.983 155.147 157.2 155.817 156.04 157.07C155.872 157.258 155.579 157.42 155.21 157.53L152.5 158.29C151.3 158.223 150.813 158.793 151.04 160C149.907 161.767 148.49 163.267 146.79 164.5L135.25 164.29L128 163.56C127.68 163.528 127.364 163.617 127.12 163.81C125.053 165.45 122.773 166.347 120.28 166.5C119.953 166.52 117.597 166.333 113.21 165.94C103.31 165.053 93.43 164.003 83.57 162.79C83.4033 162.77 83.1933 162.78 82.94 162.82C82.6533 162.867 82.4367 162.84 82.29 162.74C81.8767 162.453 81.9667 162.313 82.56 162.32L113.39 162.68C113.551 162.682 113.71 162.647 113.855 162.578C114 162.508 114.127 162.406 114.226 162.279C114.325 162.152 114.393 162.004 114.425 161.846C114.457 161.688 114.452 161.525 114.41 161.37C113.277 157.057 113.547 153.107 115.22 149.52C115.933 147.993 117.117 147.07 118.77 146.75C119.477 146.61 119.59 146.27 119.11 145.73C117.91 144.383 116.727 144.097 115.56 144.87C114.867 145.323 114.267 146.147 113.76 147.34C112.447 150.413 112.05 153.903 112.57 157.81C112.586 157.926 112.576 158.044 112.543 158.157C112.509 158.269 112.453 158.373 112.376 158.462C112.3 158.551 112.205 158.622 112.099 158.672C111.993 158.722 111.877 158.748 111.76 158.75C96.9 159.037 81.9633 159.287 66.95 159.5C66.83 159.5 66.7033 159.527 66.57 159.58C66.2633 159.7 66.1233 159.677 66.15 159.51C66.1574 159.439 66.1982 159.372 66.2655 159.319C66.3328 159.266 66.4226 159.231 66.52 159.22L95.25 156.06C95.4621 156.037 95.6569 155.984 95.8074 155.908C95.9579 155.833 96.0566 155.739 96.09 155.64C96.15 155.447 95.72 155.467 94.8 155.7C93.08 156.127 91.3467 156.293 89.6 156.2C87.7667 156.093 86.8167 156.04 86.75 156.04C77.8167 155.96 68.87 156.367 59.91 157.26C59.13 157.393 58.3733 157.273 57.64 156.9C56.8933 156.513 56.9567 156.147 57.83 155.8C72.0633 154.86 86.1333 153.423 100.04 151.49C100.236 151.461 100.415 151.363 100.545 151.213C100.675 151.062 100.748 150.87 100.75 150.67L101 119.77C101.001 119.668 100.976 119.568 100.929 119.478C100.882 119.388 100.813 119.311 100.729 119.254C100.646 119.196 100.549 119.161 100.448 119.149C100.347 119.138 100.244 119.152 100.15 119.19C84.41 125.463 68.6733 131.6 52.94 137.6C51.8067 138.033 51.74 138.017 52.74 137.55C59.7333 134.297 66.74 130.86 73.76 127.24C76.6067 126.353 79.2867 124.97 81.8 123.09C85.26 122.037 88.59 120.59 91.79 118.75C97.2633 116.563 102.587 113.953 107.76 110.92L130.99 109.65ZM120.05 127.99L125.82 128.61C125.883 128.618 125.946 128.61 126.007 128.586C126.068 128.563 126.124 128.524 126.173 128.474C126.222 128.423 126.262 128.361 126.291 128.292C126.319 128.222 126.336 128.147 126.34 128.07C126.48 125.343 126.323 122.63 125.87 119.93C125.863 119.883 125.84 119.423 125.8 118.55C125.74 117.283 124.71 116.957 122.71 117.57C121.777 117.857 120.823 118 119.85 118C118.997 118.007 118.633 118.763 118.76 120.27C118.92 122.09 119 124.223 119 126.67C118.999 127 119.106 127.318 119.3 127.561C119.494 127.805 119.761 127.958 120.05 127.99ZM115.68 127.09C116.393 127.717 116.75 127.557 116.75 126.61V119.81C116.75 119.736 116.735 119.662 116.706 119.593C116.678 119.525 116.636 119.463 116.582 119.41C116.529 119.358 116.466 119.317 116.397 119.29C116.328 119.262 116.254 119.249 116.18 119.25C115.413 119.263 114.717 119.477 114.09 119.89C113.961 119.975 113.85 120.09 113.764 120.227C113.678 120.365 113.618 120.523 113.59 120.69C113.143 123.33 113.84 125.463 115.68 127.09ZM135.59 142.6C135.49 138.273 134.167 134.857 131.62 132.35C131.367 132.103 131.33 132.133 131.51 132.44C133.463 135.867 134.74 139.263 135.34 142.63C135.527 143.663 135.61 143.653 135.59 142.6ZM127.34 134.9C125.433 133.74 123.37 133.19 121.15 133.25C121.037 133.25 120.947 133.273 120.88 133.32C120.687 133.433 120.68 133.55 120.86 133.67C120.933 133.723 121.037 133.753 121.17 133.76C123.697 133.88 125.66 134.773 127.06 136.44C128.333 137.953 128.163 138.883 126.55 139.23C125.757 139.403 125.66 139.54 126.26 139.64C126.733 139.72 127.843 139.573 129.59 139.2C129.673 139.183 129.752 139.15 129.822 139.103C129.892 139.056 129.952 138.995 129.999 138.924C130.045 138.854 130.077 138.774 130.093 138.691C130.108 138.608 130.108 138.523 130.09 138.44C129.79 137.013 128.873 135.833 127.34 134.9ZM138.325 138.948C138.27 138.735 138.133 138.553 137.943 138.441C137.753 138.329 137.527 138.297 137.314 138.353L137.178 138.388C137.073 138.415 136.974 138.463 136.887 138.528C136.8 138.594 136.726 138.676 136.671 138.77C136.616 138.864 136.579 138.968 136.564 139.076C136.549 139.184 136.555 139.293 136.583 139.399L138.055 145.092C138.11 145.305 138.247 145.487 138.437 145.599C138.627 145.711 138.853 145.743 139.066 145.687L139.202 145.652C139.307 145.625 139.406 145.577 139.493 145.512C139.58 145.446 139.654 145.364 139.709 145.27C139.764 145.176 139.801 145.072 139.816 144.964C139.831 144.856 139.825 144.747 139.798 144.641L138.325 138.948ZM141.771 146.064C141.896 146.044 142.004 145.925 142.089 145.712C142.173 145.499 142.234 145.197 142.266 144.822C142.298 144.448 142.302 144.009 142.277 143.531C142.251 143.052 142.198 142.543 142.119 142.033C141.959 141.003 141.706 140.031 141.416 139.33C141.125 138.629 140.82 138.257 140.569 138.296C140.444 138.316 140.336 138.435 140.252 138.648C140.167 138.861 140.106 139.163 140.074 139.538C140.042 139.912 140.038 140.351 140.063 140.829C140.089 141.308 140.142 141.817 140.221 142.327C140.381 143.357 140.634 144.329 140.924 145.03C141.215 145.731 141.52 146.103 141.771 146.064ZM144.79 145.75L145.75 145.71C146.597 146.357 147.077 146.267 147.19 145.44C147.283 144.753 147.303 142.857 147.25 139.75C147.237 138.763 146.653 138.443 145.5 138.79C145.207 139.017 144.887 139.17 144.54 139.25C143.373 138.27 142.923 139.177 143.19 141.97C143.25 142.657 143.273 143.35 143.26 144.05C143.233 145.69 143.743 146.257 144.79 145.75ZM149.5 145.71C149.893 145.817 150.227 145.733 150.5 145.46C151.433 145.78 152.347 145.76 153.24 145.4C153.381 145.34 153.51 145.248 153.617 145.129C153.723 145.01 153.806 144.867 153.86 144.71C154.167 143.77 154.483 142.387 154.81 140.56C155.09 139.027 154.657 138.463 153.51 138.87C153.379 138.917 153.264 139.008 153.179 139.132C153.094 139.257 153.042 139.409 153.03 139.57L152.71 144.43C152.704 144.531 152.683 144.625 152.648 144.703C152.613 144.782 152.566 144.842 152.51 144.88C152.397 144.96 152.29 144.953 152.19 144.86C152.103 144.78 152.06 144.653 152.06 144.48C152.02 143.293 152.113 142.123 152.34 140.97C152.467 140.337 152.477 139.853 152.37 139.52C152.11 138.64 151.487 138.563 150.5 139.29L149.79 139.25C148.377 138.263 147.803 138.86 148.07 141.04C148.183 142 148.183 142.96 148.07 143.92C147.85 145.767 148.327 146.363 149.5 145.71ZM115.75 141.21C113.637 142.657 113.72 142.74 116 141.46C119.02 141.847 120.963 143.52 121.83 146.48C121.917 146.773 122.02 146.84 122.14 146.68C122.177 146.637 122.203 146.579 122.215 146.511C122.227 146.443 122.226 146.367 122.21 146.29C121.81 144.403 120.913 142.803 119.52 141.49C118.387 140.417 117.13 140.323 115.75 141.21ZM142.79 147.47C143.743 147.737 144.98 147.83 146.5 147.75C150.027 147.557 150.11 147.4 146.75 147.28C145.437 147.233 144.123 147.237 142.81 147.29C142.423 147.303 142.417 147.363 142.79 147.47ZM135.31 149.94C134.123 149.4 131.853 149.24 128.5 149.46C128.344 149.471 128.197 149.526 128.077 149.617C127.958 149.708 127.871 149.831 127.83 149.97C127.57 150.903 127.773 151.703 128.44 152.37C128.652 152.582 128.965 152.714 129.32 152.74L136.34 153.27C136.436 153.277 136.532 153.262 136.621 153.227C136.711 153.191 136.791 153.136 136.857 153.066C136.923 152.995 136.973 152.91 137.003 152.818C137.033 152.725 137.042 152.627 137.03 152.53C136.877 151.25 136.303 150.387 135.31 149.94ZM119.18 150.39C118.22 150.023 117.533 150.363 117.12 151.41C116.12 153.97 115.963 156.543 116.65 159.13C116.95 160.243 117.133 160.867 117.2 161C117.553 161.72 118.22 162.033 119.2 161.94C120.327 161.82 120.537 161.317 119.83 160.43C117.657 157.683 117.573 154.747 119.58 151.62C119.648 151.516 119.692 151.398 119.708 151.275C119.724 151.152 119.713 151.027 119.675 150.909C119.636 150.791 119.572 150.683 119.486 150.593C119.401 150.504 119.296 150.434 119.18 150.39Z" fill="#1375B5"/>
<path d="M107.76 110.92C102.587 113.953 97.2633 116.563 91.79 118.75C78.3233 117.717 64.8933 118.06 51.5 119.78C47.4267 120.307 43.4067 121.113 39.44 122.2C39.3067 122.233 39.1767 122.25 39.05 122.25C38.01 122.257 38.07 122.09 39.23 121.75C39.3767 121.703 39.5133 121.653 39.64 121.6C53.3267 115.653 67.8633 112.37 83.25 111.75C95.03 111.277 103.2 111 107.76 110.92Z" fill="#46AADA"/>
<path d="M159 150.79C158.527 150.897 158.263 150.717 158.21 150.25V149C158.73 147.487 158.57 146.16 157.73 145.02C165.137 136.193 169.893 126.1 172 114.74C172.513 111.98 172.667 111.997 172.46 114.79C171.487 127.957 167 139.957 159 150.79Z" fill="#E29835"/>
<path d="M81.8 123.09C79.2867 124.97 76.6067 126.353 73.76 127.24C62.1867 125.68 50.85 125.933 39.75 128C39.2767 128.087 39.0267 127.933 39 127.54C52.88 122.913 67.1467 121.43 81.8 123.09Z" fill="#46AADA"/>
<path d="M89.56 145.19C93.02 146.037 94.68 144.89 94.54 141.75C94.5304 141.595 94.4848 141.444 94.4067 141.308C94.3287 141.173 94.2203 141.057 94.09 140.97C93.2033 140.39 92.2733 139.897 91.3 139.49C89.9533 138.923 89.0667 138.383 88.64 137.87C87.5467 136.57 87.1667 134.863 87.5 132.75C88.32 127.53 91.4733 124.69 96.96 124.23C97.1084 124.219 97.2583 124.235 97.3984 124.278C97.5384 124.321 97.6648 124.39 97.768 124.478C97.8712 124.567 97.9485 124.674 97.9939 124.79C98.0393 124.907 98.0516 125.03 98.03 125.15L97.38 128.86C97.3581 128.994 97.2759 129.112 97.1508 129.191C97.0256 129.269 96.8675 129.301 96.71 129.28C94.21 128.933 92.48 129.6 91.52 131.28C90.5133 133.033 91 134.107 92.98 134.5C96.7933 135.253 98.8233 137.19 99.07 140.31C99.2767 142.93 98.5267 145.183 96.82 147.07C95 149.09 92.3933 149.9 89 149.5C87.6467 149.34 87.17 148.66 87.57 147.46C87.67 147.153 87.71 146.833 87.69 146.5C87.61 145.3 88.2333 144.863 89.56 145.19Z" fill="#1B75AD"/>
<path d="M81.48 147C82.3467 147.127 83.3033 146.857 84.35 146.19C84.4249 146.141 84.5107 146.11 84.5996 146.1C84.6885 146.09 84.7777 146.102 84.8591 146.133C84.9405 146.165 85.0116 146.216 85.0659 146.282C85.1202 146.348 85.156 146.426 85.17 146.51L85.62 149.31C85.6393 149.441 85.5985 149.582 85.5043 149.711C85.4101 149.84 85.2678 149.948 85.1 150.02C80.04 152.213 76.84 150.623 75.5 145.25C74.9467 143.023 74.98 140.33 75.6 137.17C76.46 132.797 79.0233 130.04 83.29 128.9C85.33 128.353 85.8167 129.493 84.75 132.32C84.6953 132.467 84.6041 132.597 84.4852 132.698C84.3662 132.8 84.2233 132.869 84.07 132.9C80.89 133.573 79.02 135.27 78.46 137.99C77.96 140.39 78.14 142.73 79 145.01C79.44 146.163 80.2667 146.827 81.48 147Z" fill="#2074A3"/>
<path d="M74.84 148.61C75.2933 149.417 75.3533 150.25 75.02 151.11C74.9628 151.259 74.8676 151.389 74.7444 151.488C74.6213 151.586 74.4747 151.649 74.32 151.67L69.05 152.38C68.9751 152.389 68.899 152.383 68.8264 152.36C68.7537 152.338 68.6859 152.301 68.627 152.25C68.5682 152.2 68.5195 152.137 68.4839 152.067C68.4484 151.996 68.4266 151.919 68.42 151.84C67.9867 146.56 67.7633 141.203 67.75 135.77C67.75 135.13 67.9 134.667 68.2 134.38C68.6 133.993 69.0633 133.94 69.59 134.22C69.7064 134.285 69.8061 134.391 69.8797 134.53C69.9532 134.668 69.9981 134.834 70.01 135.01L70.88 148.07C70.8846 148.133 70.9028 148.195 70.9335 148.252C70.9643 148.308 71.0069 148.358 71.059 148.399C71.1111 148.44 71.1716 148.471 71.237 148.49C71.3024 148.509 71.3714 148.516 71.44 148.51L74.07 148.24C74.2287 148.225 74.3858 148.252 74.5224 148.318C74.659 148.384 74.7693 148.485 74.84 148.61Z" fill="#2074A3"/>
<path d="M63.57 149.94L65.95 149.67C66.1071 149.652 66.2616 149.673 66.3923 149.73C66.523 149.788 66.6235 149.878 66.68 149.99C67.18 151.017 67.06 151.893 66.32 152.62C66.1477 152.787 65.8323 152.912 65.44 152.97L62.33 153.48C62.172 153.506 62.0104 153.501 61.8558 153.464C61.7013 153.427 61.5573 153.359 61.4334 153.265C61.3095 153.172 61.2086 153.054 61.1373 152.921C61.0661 152.787 61.0261 152.64 61.02 152.49L60.38 138.25C60.3689 137.961 60.4457 137.678 60.5989 137.444C60.7522 137.209 60.9736 137.036 61.23 136.95L65.17 135.63C65.2334 135.609 65.3006 135.602 65.3673 135.608C65.434 135.614 65.4988 135.635 65.5578 135.667C65.6168 135.7 65.6687 135.745 65.7104 135.799C65.752 135.852 65.7825 135.914 65.8 135.98C66.0467 136.92 66.07 137.663 65.87 138.21C65.73 138.603 65.1833 138.913 64.23 139.14C62.61 139.533 62.0833 140.64 62.65 142.46C62.6885 142.593 62.7778 142.707 62.9011 142.781C63.0244 142.855 63.1734 142.883 63.32 142.86L65.25 142.57C65.3963 142.547 65.545 142.572 65.6708 142.641C65.7967 142.71 65.8918 142.82 65.94 142.95C66.74 145.01 65.99 146.087 63.69 146.18C63.5375 146.185 63.3919 146.235 63.2748 146.321C63.1577 146.408 63.0754 146.526 63.04 146.66C62.7933 147.567 62.7633 148.5 62.95 149.46C62.9801 149.607 63.0605 149.738 63.1752 149.827C63.29 149.915 63.4308 149.956 63.57 149.94Z" fill="#2074A3"/>
<path d="M145.5 138.79L145.75 145.71L144.79 145.75L144.54 139.25C144.887 139.17 145.207 139.017 145.5 138.79Z" fill="#46AADA"/>
<path d="M149.79 139.25L150.5 139.29C150.86 141.35 150.86 143.407 150.5 145.46C150.227 145.733 149.893 145.817 149.5 145.71L149.79 139.25Z" fill="#46AADA"/>
<path d="M115.75 141.21C115.89 141.237 115.973 141.32 116 141.46C113.72 142.74 113.637 142.657 115.75 141.21Z" fill="#EDFBFA"/>
<path d="M142.81 147.29C144.123 147.237 145.437 147.233 146.75 147.28C150.11 147.4 150.027 147.557 146.5 147.75C144.98 147.83 143.743 147.737 142.79 147.47C142.417 147.363 142.423 147.303 142.81 147.29Z" fill="#46AADA"/>
<path d="M152.5 158.29C152.173 158.99 151.687 159.56 151.04 160C150.813 158.793 151.3 158.223 152.5 158.29Z" fill="#46AADA"/>
</g>
<defs>
<clipPath id="clip0_1_235">
<rect width="200" height="200" fill="white"/>
</clipPath>
</defs>
</svg>
